<mxfile host="app.diagrams.net" modified="2023-04-21T02:07:50.387Z" agent="Mozilla/5.0 (Windows NT 10.0; Win64; x64) AppleWebKit/537.36 (KHTML, like Gecko) Chrome/112.0.0.0 Safari/537.36" etag="_r-OH5BG1-H0O3HOTRFQ" version="21.2.1" type="device">
  <diagram name="페이지-1" id="TberV2IE8CyoB8KrRBdS">
    <mxGraphModel dx="1096" dy="1923" grid="1" gridSize="10" guides="1" tooltips="1" connect="1" arrows="1" fold="1" page="1" pageScale="1" pageWidth="827" pageHeight="1169" math="0" shadow="0">
      <root>
        <mxCell id="0" />
        <mxCell id="1" parent="0" />
        <mxCell id="o5jlow0pocVy-bsKvYkN-44" style="rounded=0;orthogonalLoop=1;jettySize=auto;html=1;entryX=0.438;entryY=0;entryDx=0;entryDy=0;endArrow=ERzeroToOne;endFill=0;startArrow=ERone;startFill=0;labelBackgroundColor=none;strokeColor=#736CA8;fontColor=default;entryPerimeter=0;" parent="1" source="o5jlow0pocVy-bsKvYkN-1" target="o5jlow0pocVy-bsKvYkN-53" edge="1">
          <mxGeometry relative="1" as="geometry" />
        </mxCell>
        <mxCell id="o5jlow0pocVy-bsKvYkN-46" style="rounded=0;orthogonalLoop=1;jettySize=auto;html=1;exitX=0.5;exitY=1;exitDx=0;exitDy=0;entryX=0.5;entryY=0;entryDx=0;entryDy=0;startArrow=none;startFill=0;endArrow=ERmany;endFill=0;labelBackgroundColor=none;strokeColor=#736CA8;fontColor=default;" parent="1" source="o5jlow0pocVy-bsKvYkN-54" target="o5jlow0pocVy-bsKvYkN-2" edge="1">
          <mxGeometry relative="1" as="geometry" />
        </mxCell>
        <mxCell id="o5jlow0pocVy-bsKvYkN-1" value="회원" style="whiteSpace=wrap;html=1;aspect=fixed;labelBackgroundColor=none;fontSize=20;fillColor=#5D7F99;strokeColor=#D0CEE2;fontColor=#1A1A1A;" parent="1" vertex="1">
          <mxGeometry x="640" y="640" width="160" height="160" as="geometry" />
        </mxCell>
        <mxCell id="o5jlow0pocVy-bsKvYkN-57" value="" style="rounded=0;orthogonalLoop=1;jettySize=auto;html=1;strokeColor=#736CA8;fontColor=#1A1A1A;endArrow=none;endFill=0;exitX=1;exitY=1;exitDx=0;exitDy=0;" parent="1" source="o5jlow0pocVy-bsKvYkN-2" target="o5jlow0pocVy-bsKvYkN-56" edge="1">
          <mxGeometry relative="1" as="geometry" />
        </mxCell>
        <mxCell id="o5jlow0pocVy-bsKvYkN-59" value="" style="edgeStyle=orthogonalEdgeStyle;rounded=0;orthogonalLoop=1;jettySize=auto;html=1;strokeColor=#736CA8;fontColor=#1A1A1A;endArrow=none;endFill=0;" parent="1" source="o5jlow0pocVy-bsKvYkN-2" target="o5jlow0pocVy-bsKvYkN-58" edge="1">
          <mxGeometry relative="1" as="geometry" />
        </mxCell>
        <mxCell id="o5jlow0pocVy-bsKvYkN-61" value="" style="rounded=0;orthogonalLoop=1;jettySize=auto;html=1;strokeColor=#736CA8;fontColor=#1A1A1A;endArrow=none;endFill=0;exitX=0;exitY=1;exitDx=0;exitDy=0;" parent="1" source="o5jlow0pocVy-bsKvYkN-2" target="o5jlow0pocVy-bsKvYkN-60" edge="1">
          <mxGeometry relative="1" as="geometry" />
        </mxCell>
        <mxCell id="o5jlow0pocVy-bsKvYkN-2" value="결제방법" style="whiteSpace=wrap;html=1;aspect=fixed;labelBackgroundColor=none;fontSize=20;fillColor=#5D7F99;strokeColor=#D0CEE2;fontColor=#1A1A1A;" parent="1" vertex="1">
          <mxGeometry x="490" y="1120" width="120" height="120" as="geometry" />
        </mxCell>
        <mxCell id="o5jlow0pocVy-bsKvYkN-33" style="edgeStyle=orthogonalEdgeStyle;rounded=0;orthogonalLoop=1;jettySize=auto;html=1;entryX=0;entryY=0.5;entryDx=0;entryDy=0;startArrow=circle;startFill=1;endArrow=ERzeroToOne;endFill=0;labelBackgroundColor=none;strokeColor=#736CA8;fontColor=default;" parent="1" source="o5jlow0pocVy-bsKvYkN-3" target="o5jlow0pocVy-bsKvYkN-5" edge="1">
          <mxGeometry relative="1" as="geometry" />
        </mxCell>
        <mxCell id="o5jlow0pocVy-bsKvYkN-68" value="" style="edgeStyle=orthogonalEdgeStyle;rounded=0;orthogonalLoop=1;jettySize=auto;html=1;strokeColor=#736CA8;fontColor=#1A1A1A;endArrow=none;endFill=0;" parent="1" source="o5jlow0pocVy-bsKvYkN-3" target="o5jlow0pocVy-bsKvYkN-67" edge="1">
          <mxGeometry relative="1" as="geometry" />
        </mxCell>
        <mxCell id="o5jlow0pocVy-bsKvYkN-3" value="영화 예매&lt;br&gt;사이트" style="whiteSpace=wrap;html=1;aspect=fixed;labelBackgroundColor=none;fontSize=20;fillColor=#5D7F99;strokeColor=#D0CEE2;fontColor=#1A1A1A;" parent="1" vertex="1">
          <mxGeometry x="500" y="140" width="120" height="120" as="geometry" />
        </mxCell>
        <mxCell id="o5jlow0pocVy-bsKvYkN-48" value="" style="rounded=0;orthogonalLoop=1;jettySize=auto;html=1;exitX=0.5;exitY=1;exitDx=0;exitDy=0;startArrow=none;startFill=0;labelBackgroundColor=none;strokeColor=#736CA8;fontColor=default;fontStyle=4;endArrow=none;endFill=0;" parent="1" source="o5jlow0pocVy-bsKvYkN-49" target="o5jlow0pocVy-bsKvYkN-47" edge="1">
          <mxGeometry relative="1" as="geometry">
            <mxPoint x="140" y="600" as="sourcePoint" />
          </mxGeometry>
        </mxCell>
        <mxCell id="o5jlow0pocVy-bsKvYkN-63" value="" style="rounded=0;orthogonalLoop=1;jettySize=auto;html=1;strokeColor=#736CA8;fontColor=#1A1A1A;endArrow=none;endFill=0;" parent="1" source="o5jlow0pocVy-bsKvYkN-5" target="o5jlow0pocVy-bsKvYkN-62" edge="1">
          <mxGeometry relative="1" as="geometry" />
        </mxCell>
        <mxCell id="o5jlow0pocVy-bsKvYkN-65" value="" style="rounded=0;orthogonalLoop=1;jettySize=auto;html=1;strokeColor=#736CA8;fontColor=#1A1A1A;endArrow=none;endFill=0;exitX=1;exitY=0;exitDx=0;exitDy=0;" parent="1" source="o5jlow0pocVy-bsKvYkN-5" target="o5jlow0pocVy-bsKvYkN-64" edge="1">
          <mxGeometry relative="1" as="geometry" />
        </mxCell>
        <mxCell id="o5jlow0pocVy-bsKvYkN-5" value="극장" style="whiteSpace=wrap;html=1;aspect=fixed;labelBackgroundColor=none;fontSize=20;fillColor=#5D7F99;strokeColor=#D0CEE2;fontColor=#1A1A1A;" parent="1" vertex="1">
          <mxGeometry x="840" y="140" width="120" height="120" as="geometry" />
        </mxCell>
        <mxCell id="o5jlow0pocVy-bsKvYkN-28" style="rounded=0;orthogonalLoop=1;jettySize=auto;html=1;exitX=0.5;exitY=1;exitDx=0;exitDy=0;entryX=0.25;entryY=0;entryDx=0;entryDy=0;endArrow=ERzeroToOne;endFill=0;labelBackgroundColor=none;strokeColor=#736CA8;fontColor=default;" parent="1" source="o5jlow0pocVy-bsKvYkN-6" target="o5jlow0pocVy-bsKvYkN-1" edge="1">
          <mxGeometry relative="1" as="geometry" />
        </mxCell>
        <mxCell id="o5jlow0pocVy-bsKvYkN-29" style="rounded=0;orthogonalLoop=1;jettySize=auto;html=1;entryX=0.5;entryY=1;entryDx=0;entryDy=0;startArrow=none;startFill=0;endArrow=ERone;endFill=0;labelBackgroundColor=none;strokeColor=#736CA8;fontColor=default;" parent="1" source="o5jlow0pocVy-bsKvYkN-6" target="o5jlow0pocVy-bsKvYkN-3" edge="1">
          <mxGeometry relative="1" as="geometry" />
        </mxCell>
        <mxCell id="o5jlow0pocVy-bsKvYkN-22" style="rounded=0;orthogonalLoop=1;jettySize=auto;html=1;exitX=1;exitY=0.5;exitDx=0;exitDy=0;endArrow=none;endFill=0;labelBackgroundColor=none;strokeColor=#736CA8;fontColor=default;" parent="1" source="o5jlow0pocVy-bsKvYkN-8" edge="1">
          <mxGeometry relative="1" as="geometry">
            <mxPoint x="770" y="120" as="sourcePoint" />
            <mxPoint x="640" y="680" as="targetPoint" />
          </mxGeometry>
        </mxCell>
        <mxCell id="o5jlow0pocVy-bsKvYkN-8" value="이름" style="ellipse;whiteSpace=wrap;html=1;aspect=fixed;labelBackgroundColor=none;fontSize=20;fillColor=#5D7F99;strokeColor=#D0CEE2;fontColor=#1A1A1A;" parent="1" vertex="1">
          <mxGeometry x="440" y="600" width="80" height="80" as="geometry" />
        </mxCell>
        <mxCell id="o5jlow0pocVy-bsKvYkN-23" style="rounded=0;orthogonalLoop=1;jettySize=auto;html=1;entryX=0;entryY=0.5;entryDx=0;entryDy=0;endArrow=none;endFill=0;labelBackgroundColor=none;strokeColor=#736CA8;fontColor=default;" parent="1" source="o5jlow0pocVy-bsKvYkN-17" target="o5jlow0pocVy-bsKvYkN-1" edge="1">
          <mxGeometry relative="1" as="geometry" />
        </mxCell>
        <mxCell id="o5jlow0pocVy-bsKvYkN-17" value="&lt;font style=&quot;font-size: 18px;&quot;&gt;주민번호&lt;/font&gt;" style="ellipse;whiteSpace=wrap;html=1;aspect=fixed;labelBackgroundColor=none;fontSize=20;fontStyle=4;fillColor=#5D7F99;strokeColor=#D0CEE2;fontColor=#1A1A1A;" parent="1" vertex="1">
          <mxGeometry x="440" y="680" width="80" height="80" as="geometry" />
        </mxCell>
        <mxCell id="o5jlow0pocVy-bsKvYkN-24" style="rounded=0;orthogonalLoop=1;jettySize=auto;html=1;entryX=0;entryY=1;entryDx=0;entryDy=0;endArrow=none;endFill=0;labelBackgroundColor=none;strokeColor=#736CA8;fontColor=default;" parent="1" source="o5jlow0pocVy-bsKvYkN-18" target="o5jlow0pocVy-bsKvYkN-1" edge="1">
          <mxGeometry relative="1" as="geometry" />
        </mxCell>
        <mxCell id="o5jlow0pocVy-bsKvYkN-18" value="전화번호" style="ellipse;whiteSpace=wrap;html=1;aspect=fixed;labelBackgroundColor=none;fontSize=18;fillColor=#5D7F99;strokeColor=#D0CEE2;fontColor=#1A1A1A;" parent="1" vertex="1">
          <mxGeometry x="440" y="760" width="80" height="80" as="geometry" />
        </mxCell>
        <mxCell id="o5jlow0pocVy-bsKvYkN-26" style="rounded=0;orthogonalLoop=1;jettySize=auto;html=1;entryX=1;entryY=0.5;entryDx=0;entryDy=0;endArrow=none;endFill=0;labelBackgroundColor=none;strokeColor=#736CA8;fontColor=default;" parent="1" source="o5jlow0pocVy-bsKvYkN-19" target="o5jlow0pocVy-bsKvYkN-1" edge="1">
          <mxGeometry relative="1" as="geometry" />
        </mxCell>
        <mxCell id="o5jlow0pocVy-bsKvYkN-19" value="아이디" style="ellipse;whiteSpace=wrap;html=1;aspect=fixed;labelBackgroundColor=none;fontSize=20;fillColor=#5D7F99;strokeColor=#D0CEE2;fontColor=#1A1A1A;" parent="1" vertex="1">
          <mxGeometry x="920" y="680" width="80" height="80" as="geometry" />
        </mxCell>
        <mxCell id="o5jlow0pocVy-bsKvYkN-27" style="rounded=0;orthogonalLoop=1;jettySize=auto;html=1;entryX=1;entryY=0.75;entryDx=0;entryDy=0;endArrow=none;endFill=0;labelBackgroundColor=none;strokeColor=#736CA8;fontColor=default;" parent="1" source="o5jlow0pocVy-bsKvYkN-20" target="o5jlow0pocVy-bsKvYkN-1" edge="1">
          <mxGeometry relative="1" as="geometry" />
        </mxCell>
        <mxCell id="o5jlow0pocVy-bsKvYkN-20" value="비밀번호" style="ellipse;whiteSpace=wrap;html=1;aspect=fixed;labelBackgroundColor=none;fontSize=18;fillColor=#5D7F99;strokeColor=#D0CEE2;fontColor=#1A1A1A;" parent="1" vertex="1">
          <mxGeometry x="920" y="760" width="80" height="80" as="geometry" />
        </mxCell>
        <mxCell id="o5jlow0pocVy-bsKvYkN-25" style="rounded=0;orthogonalLoop=1;jettySize=auto;html=1;entryX=1;entryY=0.25;entryDx=0;entryDy=0;endArrow=none;endFill=0;labelBackgroundColor=none;strokeColor=#736CA8;fontColor=default;" parent="1" source="o5jlow0pocVy-bsKvYkN-21" target="o5jlow0pocVy-bsKvYkN-1" edge="1">
          <mxGeometry relative="1" as="geometry" />
        </mxCell>
        <mxCell id="o5jlow0pocVy-bsKvYkN-21" value="이메일" style="ellipse;whiteSpace=wrap;html=1;aspect=fixed;labelBackgroundColor=none;fontSize=20;fillColor=#5D7F99;strokeColor=#D0CEE2;fontColor=#1A1A1A;" parent="1" vertex="1">
          <mxGeometry x="920" y="600" width="80" height="80" as="geometry" />
        </mxCell>
        <mxCell id="o5jlow0pocVy-bsKvYkN-40" value="" style="rounded=0;orthogonalLoop=1;jettySize=auto;html=1;startArrow=none;startFill=0;endArrow=none;endFill=0;labelBackgroundColor=none;strokeColor=#736CA8;fontColor=default;exitX=0;exitY=1;exitDx=0;exitDy=0;" parent="1" source="o5jlow0pocVy-bsKvYkN-30" target="o5jlow0pocVy-bsKvYkN-39" edge="1">
          <mxGeometry relative="1" as="geometry">
            <mxPoint x="878" y="650.9999999999998" as="sourcePoint" />
          </mxGeometry>
        </mxCell>
        <mxCell id="o5jlow0pocVy-bsKvYkN-42" value="" style="rounded=0;orthogonalLoop=1;jettySize=auto;html=1;endArrow=none;endFill=0;startArrow=none;startFill=0;labelBackgroundColor=none;strokeColor=#736CA8;fontColor=default;exitX=1;exitY=1;exitDx=0;exitDy=0;entryX=0;entryY=0;entryDx=0;entryDy=0;" parent="1" target="o5jlow0pocVy-bsKvYkN-41" edge="1">
          <mxGeometry relative="1" as="geometry">
            <mxPoint x="959" y="1200" as="sourcePoint" />
            <mxPoint x="1040.715728752538" y="1281.715728752538" as="targetPoint" />
          </mxGeometry>
        </mxCell>
        <mxCell id="o5jlow0pocVy-bsKvYkN-30" value="결제취소" style="whiteSpace=wrap;html=1;aspect=fixed;labelBackgroundColor=none;fontSize=20;fillColor=#5D7F99;strokeColor=#D0CEE2;fontColor=#1A1A1A;" parent="1" vertex="1">
          <mxGeometry x="840" y="1120" width="120" height="120" as="geometry" />
        </mxCell>
        <mxCell id="o5jlow0pocVy-bsKvYkN-69" style="rounded=0;orthogonalLoop=1;jettySize=auto;html=1;strokeColor=#736CA8;fontColor=#1A1A1A;endArrow=none;endFill=0;exitX=1;exitY=0.5;exitDx=0;exitDy=0;entryX=0;entryY=0.5;entryDx=0;entryDy=0;" parent="1" source="o5jlow0pocVy-bsKvYkN-5" target="o5jlow0pocVy-bsKvYkN-49" edge="1">
          <mxGeometry relative="1" as="geometry">
            <mxPoint x="1171" y="320" as="sourcePoint" />
            <mxPoint x="2471.0588235294117" y="468.9999999999998" as="targetPoint" />
          </mxGeometry>
        </mxCell>
        <mxCell id="IBRJwh2ODAipxtm5AQlj-13" style="edgeStyle=orthogonalEdgeStyle;rounded=0;orthogonalLoop=1;jettySize=auto;html=1;entryX=1;entryY=0.5;entryDx=0;entryDy=0;endArrow=none;endFill=0;" parent="1" source="o5jlow0pocVy-bsKvYkN-37" target="o5jlow0pocVy-bsKvYkN-49" edge="1">
          <mxGeometry relative="1" as="geometry" />
        </mxCell>
        <mxCell id="o5jlow0pocVy-bsKvYkN-37" value="영화" style="ellipse;whiteSpace=wrap;html=1;aspect=fixed;labelBackgroundColor=none;fontSize=18;fillColor=#5D7F99;strokeColor=#D0CEE2;fontColor=#1A1A1A;" parent="1" vertex="1">
          <mxGeometry x="1280" y="160" width="80" height="80" as="geometry" />
        </mxCell>
        <mxCell id="o5jlow0pocVy-bsKvYkN-39" value="전체취소" style="ellipse;whiteSpace=wrap;html=1;fontSize=18;labelBackgroundColor=none;fillColor=#5D7F99;strokeColor=#D0CEE2;fontColor=#1A1A1A;fontStyle=4" parent="1" vertex="1">
          <mxGeometry x="800" y="1290" width="80" height="80" as="geometry" />
        </mxCell>
        <mxCell id="o5jlow0pocVy-bsKvYkN-41" value="부분취소" style="ellipse;whiteSpace=wrap;html=1;fontSize=18;labelBackgroundColor=none;fillColor=#5D7F99;strokeColor=#D0CEE2;fontColor=#1A1A1A;" parent="1" vertex="1">
          <mxGeometry x="960" y="1290" width="80" height="80" as="geometry" />
        </mxCell>
        <mxCell id="o5jlow0pocVy-bsKvYkN-47" value="좌석" style="ellipse;whiteSpace=wrap;html=1;fontSize=20;labelBackgroundColor=none;fillColor=#5D7F99;strokeColor=#D0CEE2;fontColor=#1A1A1A;fontStyle=4" parent="1" vertex="1">
          <mxGeometry x="1100" y="320" width="80" height="80" as="geometry" />
        </mxCell>
        <mxCell id="o5jlow0pocVy-bsKvYkN-49" value="&lt;span style=&quot;border-color: var(--border-color); font-size: 18px;&quot;&gt;상영관&lt;/span&gt;" style="whiteSpace=wrap;html=1;aspect=fixed;labelBackgroundColor=none;fontSize=20;fillColor=#5D7F99;strokeColor=#D0CEE2;fontColor=#1A1A1A;fontStyle=0" parent="1" vertex="1">
          <mxGeometry x="1080" y="140" width="120" height="120" as="geometry" />
        </mxCell>
        <mxCell id="o5jlow0pocVy-bsKvYkN-51" style="rounded=0;orthogonalLoop=1;jettySize=auto;html=1;entryX=0.75;entryY=0;entryDx=0;entryDy=0;strokeColor=#736CA8;fontColor=#1A1A1A;endArrow=ERone;endFill=0;exitX=0.5;exitY=1;exitDx=0;exitDy=0;" parent="1" source="o5jlow0pocVy-bsKvYkN-50" target="o5jlow0pocVy-bsKvYkN-1" edge="1">
          <mxGeometry relative="1" as="geometry">
            <mxPoint x="850" y="450" as="sourcePoint" />
          </mxGeometry>
        </mxCell>
        <mxCell id="o5jlow0pocVy-bsKvYkN-52" style="rounded=0;orthogonalLoop=1;jettySize=auto;html=1;exitX=0.5;exitY=0;exitDx=0;exitDy=0;entryX=0.5;entryY=1;entryDx=0;entryDy=0;strokeColor=#736CA8;fontColor=#1A1A1A;endArrow=ERmany;endFill=0;" parent="1" source="o5jlow0pocVy-bsKvYkN-50" target="o5jlow0pocVy-bsKvYkN-5" edge="1">
          <mxGeometry relative="1" as="geometry" />
        </mxCell>
        <mxCell id="o5jlow0pocVy-bsKvYkN-50" value="예매" style="rhombus;whiteSpace=wrap;html=1;labelBackgroundColor=none;fontSize=20;fillColor=#5D7F99;strokeColor=#D0CEE2;fontColor=#1A1A1A;" parent="1" vertex="1">
          <mxGeometry x="750" y="360" width="160" height="80" as="geometry" />
        </mxCell>
        <mxCell id="IBRJwh2ODAipxtm5AQlj-6" style="rounded=0;orthogonalLoop=1;jettySize=auto;html=1;" parent="1" source="o5jlow0pocVy-bsKvYkN-53" target="o5jlow0pocVy-bsKvYkN-30" edge="1">
          <mxGeometry relative="1" as="geometry" />
        </mxCell>
        <mxCell id="o5jlow0pocVy-bsKvYkN-53" value="취소" style="rhombus;whiteSpace=wrap;html=1;labelBackgroundColor=none;fontSize=20;fillColor=#5D7F99;strokeColor=#D0CEE2;fontColor=#1A1A1A;" parent="1" vertex="1">
          <mxGeometry x="810" y="930" width="160" height="80" as="geometry" />
        </mxCell>
        <mxCell id="o5jlow0pocVy-bsKvYkN-55" style="rounded=0;orthogonalLoop=1;jettySize=auto;html=1;exitX=0.5;exitY=0;exitDx=0;exitDy=0;entryX=0;entryY=1;entryDx=0;entryDy=0;strokeColor=#736CA8;fontColor=#1A1A1A;startArrow=none;startFill=0;endArrow=ERone;endFill=0;" parent="1" source="o5jlow0pocVy-bsKvYkN-54" target="o5jlow0pocVy-bsKvYkN-1" edge="1">
          <mxGeometry relative="1" as="geometry" />
        </mxCell>
        <mxCell id="o5jlow0pocVy-bsKvYkN-54" value="결제" style="rhombus;whiteSpace=wrap;html=1;labelBackgroundColor=none;fontSize=20;fillColor=#5D7F99;strokeColor=#D0CEE2;fontColor=#1A1A1A;" parent="1" vertex="1">
          <mxGeometry x="470" y="930" width="160" height="80" as="geometry" />
        </mxCell>
        <mxCell id="o5jlow0pocVy-bsKvYkN-56" value="카드결제" style="ellipse;whiteSpace=wrap;html=1;fontSize=18;fillColor=#5D7F99;strokeColor=#D0CEE2;fontColor=#1A1A1A;labelBackgroundColor=none;" parent="1" vertex="1">
          <mxGeometry x="570" y="1290" width="80" height="80" as="geometry" />
        </mxCell>
        <mxCell id="o5jlow0pocVy-bsKvYkN-58" value="계좌이체" style="ellipse;whiteSpace=wrap;html=1;fontSize=18;fillColor=#5D7F99;strokeColor=#D0CEE2;fontColor=#1A1A1A;labelBackgroundColor=none;fontStyle=4" parent="1" vertex="1">
          <mxGeometry x="370" y="1140" width="80" height="80" as="geometry" />
        </mxCell>
        <mxCell id="o5jlow0pocVy-bsKvYkN-60" value="포인트" style="ellipse;whiteSpace=wrap;html=1;fontSize=20;fillColor=#5D7F99;strokeColor=#D0CEE2;fontColor=#1A1A1A;labelBackgroundColor=none;" parent="1" vertex="1">
          <mxGeometry x="420" y="1270" width="80" height="80" as="geometry" />
        </mxCell>
        <mxCell id="o5jlow0pocVy-bsKvYkN-62" value="지점명" style="ellipse;whiteSpace=wrap;html=1;fontSize=20;fillColor=#5D7F99;strokeColor=#D0CEE2;fontColor=#1A1A1A;labelBackgroundColor=none;fontStyle=4" parent="1" vertex="1">
          <mxGeometry x="800" y="-30" width="80" height="80" as="geometry" />
        </mxCell>
        <mxCell id="o5jlow0pocVy-bsKvYkN-64" value="위치" style="ellipse;whiteSpace=wrap;html=1;fontSize=20;fillColor=#5D7F99;strokeColor=#D0CEE2;fontColor=#1A1A1A;labelBackgroundColor=none;" parent="1" vertex="1">
          <mxGeometry x="950" y="-30" width="80" height="80" as="geometry" />
        </mxCell>
        <mxCell id="o5jlow0pocVy-bsKvYkN-67" value="회원&lt;br&gt;아이디" style="ellipse;whiteSpace=wrap;html=1;fontSize=20;fillColor=#5D7F99;strokeColor=#D0CEE2;fontColor=#1A1A1A;labelBackgroundColor=none;fontStyle=4" parent="1" vertex="1">
          <mxGeometry x="360" y="160" width="80" height="80" as="geometry" />
        </mxCell>
        <mxCell id="o5jlow0pocVy-bsKvYkN-6" value="예매" style="rhombus;whiteSpace=wrap;html=1;labelBackgroundColor=none;fontSize=20;fillColor=#5D7F99;strokeColor=#D0CEE2;fontColor=#1A1A1A;" parent="1" vertex="1">
          <mxGeometry x="550" y="360" width="160" height="80" as="geometry" />
        </mxCell>
      </root>
    </mxGraphModel>
  </diagram>
</mxfile>
